# xmcd
#
# Track frame offsets:
#	150
#	12677
#	27343
#	43956
#	57970
#	70409
#	81004
#	97839
#	108275
#	121906
#	136021
#	153189
#	165432
#	179956
#
# Disc length: 2605 seconds
#
# Revision: 1
# Processed by: cddbd v1.5.2PL0 Copyright (c) Steve Scherf et al.
# Submitted via: audiograbber 1.83.01
#
DISCID=b60a2b0e
DTITLE=Various Artist - Hillcrest CD#32
DYEAR=1900
DGENRE=Country
TTITLE0=Lucie Diamond - Don't Even Think About It
TTITLE1=Donny Richmond and the Jordanaires - I Can't Help But Wonder
TTITLE2=Rick Wilson - Workin' To Live
TTITLE3=Judy Harrison - Walkin' On The Blues Side
TTITLE4=Marcus Tribble - New Looks From An Old Lover
TTITLE5=Timothy Charles - Soon
TTITLE6=Debbie Nunn - Born To Love You
TTITLE7=Paul Dow - Since You Went Away
TTITLE8=Grant Daniels - Country Soul
TTITLE9=Lorraine Davies - Smoke Screen
TTITLE10=Kevin Carson - We Both Told Some Lies
TTITLE11=Scott Markley - Unconditional Love
TTITLE12=Dahlia Wakefield - Let's Talk About Love
TTITLE13=Richard Frankz - Knew You At All
EXTD=
EXTT0=
EXTT1=
EXTT2=
EXTT3=
EXTT4=
EXTT5=
EXTT6=
EXTT7=
EXTT8=
EXTT9=
EXTT10=
EXTT11=
EXTT12=
EXTT13=
PLAYORDER=
